<?xml version="1.0" standalone="no"?><!DOCTYPE svg PUBLIC "-//W3C//DTD SVG 1.1//EN" "http://www.w3.org/Graphics/SVG/1.1/DTD/svg11.dtd"><svg t="1505386556615" class="icon" style="" viewBox="0 0 1024 1024" version="1.1" xmlns="http://www.w3.org/2000/svg" p-id="509" xmlns:xlink="http://www.w3.org/1999/xlink" width="200" height="200"><defs><style type="text/css"></style></defs><path d="M517.688889 1012.622222L82.488889 762.311111V261.688889L514.844444 11.377778l432.355556 250.311111v500.622222l-429.511111 250.311111zM110.933333 745.244444l403.911111 233.244445 403.911112-233.244445V278.755556L517.688889 45.511111 110.933333 278.755556v466.488888z" p-id="510" fill="#A2A9AF"></path><path d="M725.333333 381.155556c-17.066667 0-28.444444 11.377778-28.444444 28.444444 0 2.844444 0 8.533333 2.844444 11.377778l-91.022222 68.266666-65.422222-139.377777c8.533333-5.688889 11.377778-14.222222 11.377778-22.755556 0-14.222222-11.377778-28.444444-28.444445-28.444444s-28.444444 11.377778-28.444444 28.444444c0 8.533333 5.688889 17.066667 11.377778 22.755556l-71.111112 139.377777-85.333333-68.266666c2.844444-2.844444 2.844444-8.533333 2.844445-11.377778 0-14.222222-11.377778-28.444444-28.444445-28.444444s-28.444444 11.377778-28.444444 28.444444c0 14.222222 11.377778 28.444444 28.444444 28.444444l65.422222 182.044445c2.844444 8.533333 8.533333 11.377778 14.222223 11.377778h238.933333c8.533333 0 14.222222-5.688889 14.222222-11.377778l65.422222-182.044445c17.066667 0 28.444444-11.377778 28.444445-28.444444 0-14.222222-11.377778-28.444444-28.444445-28.444444z m-93.866666 219.022222h-213.333334l-51.2-133.688889 68.266667 54.044444c8.533333 2.844444 14.222222 0 19.911111-5.688889l68.266667-136.533333 62.577778 133.688889c2.844444 5.688889 11.377778 8.533333 19.911111 5.688889l79.644444-56.888889-54.044444 139.377778z m17.066666 62.577778h-247.466666c-8.533333 0-17.066667 5.688889-17.066667 17.066666s5.688889 17.066667 17.066667 17.066667h247.466666c2.844444 0 8.533333-2.844444 11.377778-5.688889 2.844444-2.844444 5.688889-5.688889 5.688889-11.377778 0-2.844444-2.844444-8.533333-5.688889-11.377778-2.844444-2.844444-5.688889-5.688889-11.377778-5.688888z" p-id="511" fill="#A2A9AF"></path></svg>